<svg width="202" height="40" viewBox="0 0 202 40" fill="none" xmlns="http://www.w3.org/2000/svg">
<path d="M30.1792 17.2108C29.0413 18.346 28.4726 19.925 28.6279 21.5181L28.6012 21.4917C28.7608 23.3665 28.0788 25.2157 26.7371 26.5462C25.3954 27.8766 23.5305 28.5529 21.6397 28.3946L21.6664 28.4211C19.3772 28.2098 17.2001 29.4445 16.2232 31.5083C15.2462 33.572 15.6791 36.0216 17.3056 37.633C18.9321 39.2443 21.4028 39.6714 23.4832 38.7008C25.5636 37.7302 26.8068 35.5703 26.5917 33.3005L26.6199 33.327C26.4603 31.4521 27.1423 29.6029 28.484 28.2724C29.8257 26.942 31.6906 26.2658 33.5814 26.424L33.5532 26.3975C36.0691 26.6219 38.4102 25.1007 39.2072 22.7238C40.0041 20.3468 39.0474 17.7385 36.8967 16.4246C34.7461 15.1106 31.9664 15.4361 30.1837 17.2108H30.1792Z" fill="#5454D4"/>
<path d="M19.2387 24.9534L19.2105 24.9269C20.8182 25.0875 22.4137 24.5238 23.5567 23.3913C24.6997 22.2587 25.2694 20.6771 25.1086 19.0828L25.1368 19.1093C24.9772 17.2344 25.6592 15.3852 27.0009 14.0548C28.3426 12.7243 30.2076 12.0481 32.0983 12.2063L32.0701 12.1798C34.3596 12.393 36.538 11.1596 37.5164 9.09619C38.4949 7.03273 38.0632 4.58243 36.4372 2.9701C34.8112 1.35778 32.3401 0.929746 30.2592 1.89997C28.1782 2.87018 26.9343 5.03025 27.1493 7.30044L27.1226 7.2725C27.2828 9.14746 26.6009 10.997 25.2591 12.3276C23.9173 13.6581 22.052 14.3342 20.1612 14.1754L20.1878 14.2034C18.5801 14.0427 16.9847 14.6065 15.8416 15.739C14.6986 16.8716 14.1289 18.4532 14.2897 20.0475L14.263 20.021C14.4221 21.8957 13.7399 23.7447 12.3983 25.075C11.0567 26.4053 9.19212 27.0817 7.30151 26.924L7.32821 26.9504C5.03877 26.7372 2.86038 27.9706 1.88193 30.0341C0.903478 32.0976 1.33514 34.5479 2.96114 36.1602C4.58715 37.7725 7.05823 38.2005 9.13919 37.2303C11.2202 36.2601 12.464 34.1 12.249 31.8298L12.2772 31.8563C12.1176 29.9815 12.7996 28.1322 14.1413 26.8018C15.483 25.4714 17.348 24.7951 19.2387 24.9534Z" fill="#FF7143"/>
<path d="M9.2992 22.0016C10.4373 20.8665 11.0055 19.2873 10.849 17.6942L10.8772 17.7207C10.7175 15.8453 11.3998 13.9955 12.7422 12.665C14.0846 11.3344 15.9504 10.6586 17.8416 10.8178L17.8135 10.7913C20.1021 11.0039 22.2795 9.7706 23.2573 7.7078C24.2352 5.64499 23.8035 3.19566 22.1781 1.58393C20.5527 -0.0277992 18.0826 -0.455804 16.0023 0.513824C13.922 1.48345 12.6783 3.64248 12.8927 5.91187L12.866 5.8854C13.0256 7.76024 12.3436 9.60949 11.0019 10.9399C9.66015 12.2703 7.79521 12.9466 5.90447 12.7883L5.93117 12.8148C3.41531 12.5911 1.07468 14.1127 0.278255 16.4896C-0.518171 18.8666 0.438799 21.4746 2.58946 22.7882C4.74013 24.1019 7.51957 23.7762 9.30217 22.0016H9.2992Z" fill="#5454D4"/>
<path d="M55.2401 7.33398H59.6447V28.5884H55.2401V7.33398Z" fill="#19191B"/>
<path fill-rule="evenodd" clip-rule="evenodd" d="M66.9213 14.16C64.0146 15.364 62.1266 18.1871 62.1392 21.3108C62.124 23.359 62.9399 25.3273 64.4035 26.7728C65.8671 28.2182 67.8553 29.0194 69.9209 28.9961C73.0711 28.996 75.9105 27.1127 77.1131 24.2256C78.3157 21.3384 77.6442 18.0171 75.4122 15.8128C73.1802 13.6084 69.8281 12.9559 66.9213 14.16ZM69.8583 18.054C71.7117 18.0201 73.2465 19.4733 73.2978 21.3108C73.3478 22.2217 73.0114 23.1118 72.37 23.7657C71.7285 24.4196 70.8405 24.7778 69.9209 24.7534C68.0671 24.7535 66.5596 23.2725 66.5424 21.4344C66.5252 19.5964 68.0049 18.0879 69.8583 18.054Z" fill="#19191B"/>
<path fill-rule="evenodd" clip-rule="evenodd" d="M95.2575 27.855V14.0315L90.97 14.0285V15.5138C89.9241 14.2448 88.3334 13.5426 86.6825 13.6212C82.6553 13.7471 79.4564 17.0207 79.4564 21.016C79.4564 25.0113 82.6553 28.285 86.6825 28.4109C88.3334 28.4895 89.9241 27.7873 90.97 26.5182V27.8491C91.0437 28.7272 90.711 29.591 90.0658 30.1968C89.4205 30.8026 88.5326 31.0848 87.6524 30.9638C86.2601 31.1047 84.9259 30.3738 84.3051 29.13L80.547 31.2844C82.0173 33.6598 84.7026 35.0218 87.5056 34.8138C91.4105 34.8138 95.2575 32.7462 95.2575 27.855ZM88.8784 17.6538C90.2035 18.2463 91.032 19.5782 90.9715 21.0182C90.9989 21.9481 90.6285 22.8461 89.9519 23.4904C89.2752 24.1347 88.3554 24.4653 87.4195 24.4006C85.966 24.4023 84.6575 23.5275 84.114 22.1908C83.5706 20.854 83.9014 19.3239 84.9498 18.3255C85.9982 17.3272 87.5534 17.0613 88.8784 17.6538Z" fill="#19191B"/>
<path fill-rule="evenodd" clip-rule="evenodd" d="M102.534 14.16C99.6274 15.364 97.7394 18.1871 97.752 21.3108C97.7368 23.359 98.5527 25.3273 100.016 26.7728C101.48 28.2182 103.468 29.0194 105.534 28.9961C108.684 28.996 111.523 27.1127 112.726 24.2256C113.928 21.3384 113.257 18.0171 111.025 15.8128C108.793 13.6084 105.441 12.9559 102.534 14.16ZM105.471 18.054C107.325 18.0201 108.859 19.4733 108.911 21.3108C108.961 22.2217 108.624 23.1118 107.983 23.7657C107.341 24.4196 106.453 24.7778 105.534 24.7534C103.68 24.7535 102.172 23.2725 102.155 21.4344C102.138 19.5964 103.618 18.0879 105.471 18.054Z" fill="#19191B"/>
<path fill-rule="evenodd" clip-rule="evenodd" d="M117.001 7.70835C116.013 8.11396 115.369 9.06952 115.369 10.1295C115.384 11.5708 116.559 12.7357 118.012 12.75C119.081 12.75 120.045 12.1116 120.454 11.1323C120.863 10.1531 120.637 9.0259 119.881 8.27642C119.125 7.52694 117.988 7.30273 117.001 7.70835ZM120.22 14.0309H115.814L115.808 28.5898H120.22V14.0309Z" fill="#19191B"/>
<path fill-rule="evenodd" clip-rule="evenodd" d="M137.342 26.5998C138.659 25.1573 139.342 23.2535 139.239 21.3101C139.343 19.3664 138.66 17.462 137.343 16.0191C136.026 14.5761 134.182 13.7139 132.221 13.6234C130.569 13.534 128.963 14.1857 127.848 15.3984V14.0307H123.443V34.4116H127.848V27.2189C128.962 28.4326 130.568 29.0849 132.221 28.9954C134.182 28.9045 136.025 28.0423 137.342 26.5998ZM131.283 17.9327C133.201 17.9009 134.786 19.4085 134.835 21.3101C134.901 22.2552 134.558 23.1835 133.891 23.8617C133.224 24.54 132.296 24.9037 131.342 24.8616C129.423 24.8618 127.864 23.3283 127.848 21.4261C127.831 19.5239 129.365 17.9645 131.283 17.9327Z" fill="#19191B"/>
<path d="M152.831 24.2204C152.831 27.5689 149.896 28.9954 146.726 28.9954C144.104 29.2308 141.603 27.8582 140.412 25.5307L144.228 23.3763C144.546 24.4598 145.585 25.1756 146.72 25.0939C147.776 25.0939 148.305 24.7733 148.305 24.1924C148.305 22.5895 141.081 23.4351 141.081 18.3983C141.081 15.2233 143.783 13.6233 146.837 13.6233C149.175 13.55 151.368 14.7432 152.562 16.738L148.803 18.7468C148.467 17.9673 147.692 17.4629 146.837 17.466C146.073 17.466 145.603 17.7601 145.603 18.2807C145.609 19.941 152.831 18.8336 152.831 24.2204Z" fill="#19191B"/>
<path d="M168.921 14.0312V28.5901H164.517V27.221C163.486 28.4464 161.925 29.1072 160.319 28.9974C157.353 28.9974 154.832 26.9018 154.832 22.968V14.0312H159.237V22.3283C159.162 23.0301 159.403 23.7289 159.895 24.2389C160.387 24.7488 161.08 25.0182 161.791 24.9754C163.406 24.9754 164.521 24.0445 164.521 21.9768V14.0357L168.921 14.0312Z" fill="#19191B"/>
<path d="M194.178 19.6499V28.5881H189.773V20.0278C189.773 18.5719 189.069 17.641 187.66 17.641C186.192 17.641 185.368 18.6602 185.368 20.3778V28.5881H180.965V20.0278C180.965 18.5719 180.261 17.641 178.85 17.641C177.382 17.641 176.561 18.6602 176.561 20.3778V28.5881H172.156V14.0293H176.561V15.3675C177.488 14.1612 178.97 13.5039 180.495 13.6219C182.028 13.5476 183.488 14.2767 184.341 15.5425C185.333 14.2192 186.941 13.494 188.599 13.6219C191.97 13.6234 194.178 16.0102 194.178 19.6499Z" fill="#19191B"/>
<path d="M197.903 13.9413C199.708 13.9413 201.172 12.4902 201.172 10.7002C201.172 8.91011 199.708 7.45898 197.903 7.45898C196.098 7.45898 194.635 8.91011 194.635 10.7002C194.635 12.4902 196.098 13.9413 197.903 13.9413Z" fill="#19191B"/>
</svg>
